# xmcd
#
# Track frame offsets:
#	150
#	9395
#	21730
#	35385
#	45300
#	57582
#	71415
#	87525
#	102770
#	116107
#	126575
#	133395
#	171407
#	185320
#	195497
#	215920
#
# Disc length: 3098
#
# Revision: 1
# Processed by: cddbd v1.5.1PL0 Copyright (c) Steve Scherf et al.
# Submitted via: dBpowerAMP V4.0
# Normalized: r0:TDELIM( - )
#
DISCID=f50c1810
DTITLE=Various Artist - Best of Yesterday VOL 4  CD2
DYEAR=1900
DGENRE=oldies
TTITLE0=The Everly Brothers - Wake up little Suzie
TTITLE1=Trini Lopez - Besame Mucho
TTITLE2=Judy Garland - Chicago
TTITLE3=Buddy Holly - It's so easy
TTITLE4=Django Reinhardt - Bugle call rag
TTITLE5=Mahalia Jackson - Walk over Bud's heaven
TTITLE6=Bob Marley - Duppy Conquerer
TTITLE7=Muddy Waters - Walkin' thru the park
TTITLE8=Charlie Parker - Quasimodo
TTITLE9=John Lee Hooker - Dusty Road
TTITLE10=Marika Rokk - Jan die Frauen sind Gefährlich
TTITLE11=Clifford Brown - Now's the time
TTITLE12=Dinah Washington - My old flame
TTITLE13=Gene Vincent - Cruisin
TTITLE14=Erroll Garner - Mack the knife
TTITLE15=Tina Turner - Living for the city
EXTD=
EXTT0=
EXTT1=
EXTT2=
EXTT3=
EXTT4=
EXTT5=
EXTT6=
EXTT7=
EXTT8=
EXTT9=
EXTT10=
EXTT11=
EXTT12=
EXTT13=
EXTT14=
EXTT15=
PLAYORDER=
